<svg width="49" height="49" viewBox="0 0 49 49" fill="none" xmlns="http://www.w3.org/2000/svg">
<circle cx="24.5312" cy="24.4688" r="24.4688" fill="#F61529"/>
<g clip-path="url(#clip0_1_24)">
<path d="M38.3499 16.487C37.2857 16.9586 36.1426 17.2772 34.9408 17.4212C36.1808 16.6792 37.1085 15.5114 37.5508 14.1357C36.3858 14.8277 35.1108 15.3148 33.7811 15.5758C32.8869 14.6211 31.7026 13.9883 30.412 13.7757C29.1213 13.5631 27.7966 13.7825 26.6434 14.3999C25.4902 15.0173 24.5732 15.9981 24.0346 17.1901C23.496 18.3822 23.366 19.7186 23.6648 20.9921C21.3042 20.8736 18.9949 20.26 16.8867 19.1912C14.7786 18.1224 12.9187 16.6223 11.4279 14.7882C10.9181 15.6676 10.625 16.6871 10.625 17.7729C10.6244 18.7504 10.8651 19.7129 11.3258 20.575C11.7864 21.4371 12.4527 22.1722 13.2656 22.7151C12.3229 22.6851 11.4009 22.4304 10.5766 21.9721V22.0486C10.5765 23.4195 11.0507 24.7483 11.9188 25.8094C12.7868 26.8705 13.9953 27.5986 15.3391 27.8701C14.4645 28.1068 13.5477 28.1416 12.6577 27.9721C13.0368 29.1517 13.7753 30.1832 14.7699 30.9222C15.7644 31.6613 16.9651 32.0708 18.2039 32.0935C16.1009 33.7444 13.5038 34.6399 10.8302 34.636C10.3566 34.6361 9.88338 34.6084 9.41302 34.5531C12.1269 36.298 15.286 37.2241 18.5123 37.2205C29.4341 37.2205 35.4047 28.1747 35.4047 20.3294C35.4047 20.0745 35.3983 19.8171 35.3869 19.5622C36.5482 18.7223 37.5507 17.6823 38.3473 16.4909L38.3499 16.487Z" fill="white"/>
</g>
<defs>
<clipPath id="clip0_1_24">
<rect width="30.5859" height="30.5859" fill="white" transform="translate(8.21881 10.1953)"/>
</clipPath>
</defs>
</svg>
