<svg width="49" height="49" viewBox="0 0 49 49" fill="none" xmlns="http://www.w3.org/2000/svg">
<circle cx="24.5" cy="24.4688" r="24.4688" fill="#F61529"/>
<path d="M9.13284 36.1384C8.52125 36.7864 5.43981 39.022 4.47083 38.5357C5.95391 40.8133 9.31162 43.9142 10.2222 44.3331C18.2104 42.6257 23.7685 39.6841 29.3554 36.8566C36.2084 33.3882 42.5568 28.1856 46.0887 23.1428C46.8849 22.0057 48.605 20.709 48.6755 20.7015C48.4876 19.1459 47.7142 16.0596 46.5266 13.7999C46.7023 15.2161 46.3974 16.8842 45.7145 17.8491C43.8817 20.4394 38.6264 25.4794 37.7587 25.4794C37.5081 25.4794 37.4023 23.1101 37.4023 17.4932C37.4023 10.6878 37.3276 9.42832 36.8968 8.97156C36.5175 8.57002 35.7174 8.43606 33.6977 8.43606C29.7936 8.43606 30.0027 7.78841 30.0027 19.8783C30.0027 30.6797 30.0359 30.4783 28.1529 31.0864L27.429 31.3202V23.1162C27.429 13.1833 27.5747 13.5491 23.6182 13.5491C19.7097 13.5491 19.8882 13.05 19.7737 24.2925C19.6727 34.2108 19.6958 34.0754 18.0168 34.522L17.134 34.7568V27.6375C17.134 18.7528 17.2385 19.0009 13.4963 19.0081C12.0466 19.0111 10.6887 19.1291 10.4786 19.2709C9.58325 19.8739 9.38603 21.643 9.43301 28.64C9.46486 33.3651 9.36351 35.894 9.13284 36.1384Z" fill="white"/>
</svg>
